<svg width="24" height="24" viewBox="0 0 24 24" fill="none" xmlns="http://www.w3.org/2000/svg">
<g clip-path="url(#clip0_13_434)">
<path d="M18.6562 0.930072L6.4642 13.1221C5.99855 13.5852 5.62938 14.1361 5.37808 14.7429C5.12679 15.3497 4.99835 16.0003 5.0002 16.6571V18.0001C5.0002 18.2653 5.10556 18.5196 5.2931 18.7072C5.48063 18.8947 5.73499 19.0001 6.0002 19.0001H7.3432C7.99997 19.0019 8.65057 18.8735 9.25736 18.6222C9.86415 18.3709 10.4151 18.0017 10.8782 17.5361L23.0702 5.34407C23.6546 4.75824 23.9828 3.96455 23.9828 3.13707C23.9828 2.3096 23.6546 1.5159 23.0702 0.930072C22.4759 0.361966 21.6854 0.0449219 20.8632 0.0449219C20.041 0.0449219 19.2505 0.361966 18.6562 0.930072ZM21.6562 3.93007L9.4642 16.1221C8.90033 16.6825 8.13821 16.998 7.3432 17.0001H7.0002V16.6571C7.00229 15.8621 7.31777 15.0999 7.8782 14.5361L20.0702 2.34407C20.2838 2.14003 20.5678 2.02617 20.8632 2.02617C21.1586 2.02617 21.4426 2.14003 21.6562 2.34407C21.8661 2.55459 21.984 2.83976 21.984 3.13707C21.984 3.43438 21.8661 3.71956 21.6562 3.93007Z" fill="#2F3030"/>
<path d="M23 8.979C22.7348 8.979 22.4804 9.08436 22.2929 9.27189C22.1054 9.45943 22 9.71379 22 9.979V15H18C17.2044 15 16.4413 15.3161 15.8787 15.8787C15.3161 16.4413 15 17.2044 15 18V22H5C4.20435 22 3.44129 21.6839 2.87868 21.1213C2.31607 20.5587 2 19.7957 2 19V5C2 4.20435 2.31607 3.44129 2.87868 2.87868C3.44129 2.31607 4.20435 2 5 2H14.042C14.3072 2 14.5616 1.89464 14.7491 1.70711C14.9366 1.51957 15.042 1.26522 15.042 1C15.042 0.734784 14.9366 0.48043 14.7491 0.292893C14.5616 0.105357 14.3072 0 14.042 0L5 0C3.67441 0.00158786 2.40356 0.528882 1.46622 1.46622C0.528882 2.40356 0.00158786 3.67441 0 5L0 19C0.00158786 20.3256 0.528882 21.5964 1.46622 22.5338C2.40356 23.4711 3.67441 23.9984 5 24H16.343C16.9999 24.0019 17.6507 23.8735 18.2576 23.6222C18.8646 23.3709 19.4157 23.0017 19.879 22.536L22.535 19.878C23.0008 19.4149 23.37 18.864 23.6215 18.2572C23.873 17.6504 24.0016 16.9998 24 16.343V9.979C24 9.71379 23.8946 9.45943 23.7071 9.27189C23.5196 9.08436 23.2652 8.979 23 8.979ZM18.465 21.122C18.063 21.523 17.5547 21.8006 17 21.922V18C17 17.7348 17.1054 17.4804 17.2929 17.2929C17.4804 17.1054 17.7348 17 18 17H21.925C21.8013 17.5535 21.524 18.0609 21.125 18.464L18.465 21.122Z" fill="#2F3030"/>
</g>
<defs>
<clipPath id="clip0_13_434">
<rect width="24" height="24" fill="white"/>
</clipPath>
</defs>
</svg>
