<svg width="24" height="24" viewBox="0 0 24 24" fill="none" xmlns="http://www.w3.org/2000/svg">
<path d="M16.472 20H4.1C3.94087 20 3.78826 19.9368 3.67574 19.8243C3.56321 19.7118 3.5 19.5591 3.5 19.4V9.60001C3.5 9.44088 3.56321 9.28826 3.67574 9.17574C3.78826 9.06322 3.94087 9.00001 4.1 9.00001H6.868C7.21337 9.00001 7.55286 8.91058 7.8534 8.74041C8.15395 8.57025 8.40531 8.32516 8.583 8.02901L11.293 3.51201C11.4974 3.17086 11.8194 2.91614 12.1984 2.79576C12.5774 2.67538 12.9874 2.69763 13.3512 2.85832C13.7149 3.01902 14.0075 3.30708 14.1737 3.66835C14.34 4.02961 14.3685 4.43917 14.254 4.82001L13.232 8.22801C13.2052 8.31752 13.1997 8.41204 13.2159 8.50406C13.2321 8.59607 13.2696 8.68303 13.3253 8.75801C13.3811 8.83298 13.4536 8.89391 13.537 8.93592C13.6205 8.97793 13.7126 8.99988 13.806 9.00001H18.382C18.6895 9.0001 18.9928 9.07107 19.2683 9.20742C19.5439 9.34376 19.7843 9.5418 19.9709 9.78616C20.1575 10.0305 20.2853 10.3146 20.3443 10.6163C20.4032 10.9181 20.3919 11.2294 20.311 11.526L18.401 18.526C18.2857 18.9491 18.0345 19.3225 17.6861 19.5889C17.3378 19.8552 16.9105 19.9997 16.472 20Z" stroke="black" stroke-width="1.5" stroke-linecap="round"/>
<path d="M7 20V9" stroke="black" stroke-width="1.5" stroke-linecap="round" stroke-linejoin="round"/>
</svg>
