<svg width="24" height="24" viewBox="0 0 24 24" fill="none" xmlns="http://www.w3.org/2000/svg">
<g clip-path="url(#clip0_24_433)">
<path d="M22.8288 9.17094L18.9498 5.29194C18.7612 5.10978 18.5086 5.00899 18.2464 5.01127C17.9842 5.01355 17.7334 5.11872 17.548 5.30412C17.3625 5.48953 17.2574 5.74034 17.2551 6.00254C17.2528 6.26474 17.3536 6.51734 17.5358 6.70594L21.4148 10.5849C21.53 10.7025 21.6307 10.8334 21.7148 10.9749C21.6998 10.9749 21.6878 10.9669 21.6728 10.9669L5.98877 10.9989C5.72355 10.9989 5.4692 11.1043 5.28166 11.2918C5.09413 11.4794 4.98877 11.7337 4.98877 11.9989C4.98877 12.2642 5.09413 12.5185 5.28166 12.706C5.4692 12.8936 5.72355 12.9989 5.98877 12.9989L21.6668 12.9669C21.6948 12.9669 21.7178 12.9529 21.7448 12.9509C21.6561 13.1201 21.5436 13.2757 21.4108 13.4129L17.5318 17.2919C17.4363 17.3842 17.3601 17.4945 17.3077 17.6165C17.2553 17.7385 17.2277 17.8698 17.2265 18.0025C17.2254 18.1353 17.2507 18.267 17.3009 18.3899C17.3512 18.5128 17.4255 18.6244 17.5194 18.7183C17.6133 18.8122 17.7249 18.8865 17.8478 18.9368C17.9707 18.987 18.1024 19.0123 18.2352 19.0112C18.3679 19.01 18.4992 18.9825 18.6212 18.93C18.7432 18.8776 18.8535 18.8015 18.9458 18.7059L22.8248 14.8269C23.5747 14.0768 23.9959 13.0596 23.9959 11.9989C23.9959 10.9383 23.5747 9.92105 22.8248 9.17094H22.8288Z" fill="#2F3030"/>
<path d="M7 22H5C4.20435 22 3.44129 21.6839 2.87868 21.1213C2.31607 20.5587 2 19.7956 2 19V5C2 4.20435 2.31607 3.44129 2.87868 2.87868C3.44129 2.31607 4.20435 2 5 2H7C7.26522 2 7.51957 1.89464 7.70711 1.70711C7.89464 1.51957 8 1.26522 8 1C8 0.734784 7.89464 0.48043 7.70711 0.292893C7.51957 0.105357 7.26522 0 7 0L5 0C3.67441 0.00158786 2.40356 0.528882 1.46622 1.46622C0.528882 2.40356 0.00158786 3.67441 0 5L0 19C0.00158786 20.3256 0.528882 21.5964 1.46622 22.5338C2.40356 23.4711 3.67441 23.9984 5 24H7C7.26522 24 7.51957 23.8946 7.70711 23.7071C7.89464 23.5196 8 23.2652 8 23C8 22.7348 7.89464 22.4804 7.70711 22.2929C7.51957 22.1054 7.26522 22 7 22Z" fill="#2F3030"/>
</g>
<defs>
<clipPath id="clip0_24_433">
<rect width="24" height="24" fill="white"/>
</clipPath>
</defs>
</svg>
